<?xml version="1.0" standalone="no"?>
<!DOCTYPE svg PUBLIC "-//W3C//DTD SVG 20010904//EN"
 "http://www.w3.org/TR/2001/REC-SVG-20010904/DTD/svg10.dtd">
<svg version="1.0" xmlns="http://www.w3.org/2000/svg"
 width="792.000000pt" height="792.000000pt" viewBox="0 0 792.000000 792.000000"
 preserveAspectRatio="xMidYMid meet">
<metadata>
Created by potrace 1.11, written by Peter Selinger 2001-2013
</metadata>
<g transform="translate(0.000000,792.000000) scale(0.100000,-0.100000)"
fill="#000000" stroke="none">
<path d="M282 7004 c-67 -18 -84 -27 -134 -72 -47 -42 -81 -106 -97 -180 -16
-76 -16 -5518 0 -5594 25 -118 100 -209 200 -244 53 -18 152 -19 3694 -19
3482 0 3642 1 3692 18 101 35 177 128 202 245 16 76 16 5518 0 5594 -24 114
-99 207 -197 245 -45 17 -189 18 -3677 20 -3121 1 -3637 0 -3683 -13z m4608
-794 c422 -52 655 -267 746 -690 22 -99 32 -820 14 -943 -23 -159 -85 -288
-197 -410 -87 -95 -86 -107 17 -204 117 -110 182 -224 227 -393 25 -98 32
-942 8 -1102 -58 -400 -263 -655 -590 -737 -150 -37 -231 -41 -947 -41 l-698
0 0 98 c0 124 15 222 39 271 19 36 56 73 116 115 58 40 55 -61 55 1778 0 1910
8 1732 -80 1793 -91 63 -118 136 -127 338 l-6 137 669 0 c398 0 704 -4 754
-10z m-2543 -10 c255 -32 467 -141 588 -302 90 -119 142 -250 170 -422 23
-138 22 -2911 0 -3042 -30 -175 -89 -318 -186 -446 -118 -157 -312 -256 -564
-287 -58 -7 -343 -11 -797 -11 l-708 0 0 88 c1 205 34 307 121 368 24 17 54
45 67 64 l22 33 0 1706 c-1 1356 -4 1712 -14 1736 -7 17 -37 47 -71 70 -96 65
-124 146 -125 363 l0 92 708 0 c422 0 740 -4 789 -10z m4501 -452 c17 -17 17
-639 0 -656 -17 -17 -659 -17 -676 0 -9 9 -12 96 -12 328 0 232 3 319 12 328
9 9 98 12 338 12 240 0 329 -3 338 -12z m-47 -1044 c62 -32 59 31 59 -1290 l0
-1206 75 -74 c107 -104 118 -133 130 -341 l6 -103 -502 0 -502 0 5 134 c7 173
26 221 131 318 l72 67 3 963 c2 637 -1 975 -7 998 -7 23 -32 54 -75 92 -42 38
-74 77 -92 114 -25 50 -27 68 -32 200 l-5 144 352 0 c300 0 356 -2 382 -16z"/>
<path d="M4327 5693 c-47 -13 -47 -20 -47 -718 l0 -656 25 -24 c24 -25 25 -25
232 -25 155 0 224 4 267 15 158 41 237 165 258 400 15 169 4 640 -16 723 -32
130 -88 207 -184 254 l-66 33 -226 2 c-124 1 -233 -1 -243 -4z"/>
<path d="M4305 3745 l-25 -24 0 -741 0 -741 25 -24 24 -25 234 0 c138 0 257 5
292 12 109 22 195 102 234 221 33 98 41 205 41 557 0 352 -8 459 -41 557 -39
119 -125 199 -234 221 -35 7 -154 12 -292 12 l-234 0 -24 -25z"/>
<path d="M1684 5687 l-29 -25 -3 -1687 c-1 -1150 1 -1699 8 -1726 6 -21 20
-44 31 -50 14 -7 108 -9 292 -7 303 5 330 9 404 73 49 42 98 131 118 216 22
97 22 2841 0 2938 -20 85 -69 174 -118 216 -74 63 -102 68 -403 73 l-271 3
-29 -24z"/>
</g>
</svg>
